<svg width="36" height="36" viewBox="0 0 36 36" fill="none" xmlns="http://www.w3.org/2000/svg">
<g clip-path="url(#clip0_51_6756)">
<path d="M33.0002 16.5H6.62117L14.5607 8.5605C14.7039 8.42213 14.8182 8.25661 14.8968 8.07361C14.9754 7.8906 15.0168 7.69377 15.0185 7.4946C15.0203 7.29543 14.9823 7.09791 14.9069 6.91357C14.8315 6.72922 14.7201 6.56175 14.5793 6.42091C14.4384 6.28007 14.2709 6.16869 14.0866 6.09327C13.9023 6.01785 13.7047 5.97989 13.5056 5.98162C13.3064 5.98335 13.1096 6.02473 12.9266 6.10335C12.7436 6.18196 12.578 6.29623 12.4397 6.4395L1.93967 16.9395C1.65846 17.2208 1.50049 17.6023 1.50049 18C1.50049 18.3977 1.65846 18.7792 1.93967 19.0605L12.4397 29.5605C12.7226 29.8337 13.1015 29.9849 13.4948 29.9815C13.8881 29.9781 14.2643 29.8203 14.5424 29.5422C14.8205 29.2641 14.9783 28.8879 14.9817 28.4946C14.9851 28.1013 14.8339 27.7224 14.5607 27.4395L6.62117 19.5H33.0002C33.398 19.5 33.7795 19.342 34.0608 19.0607C34.3421 18.7794 34.5002 18.3978 34.5002 18C34.5002 17.6022 34.3421 17.2206 34.0608 16.9393C33.7795 16.658 33.398 16.5 33.0002 16.5Z" fill="#F5F7FB"/>
</g>
<defs>
<clipPath id="clip0_51_6756">
<rect width="36" height="36" fill="white"/>
</clipPath>
</defs>
</svg>
