<svg width="36" height="36" viewBox="0 0 36 36" fill="none" xmlns="http://www.w3.org/2000/svg">
<g clip-path="url(#clip0_51_6768)">
<path d="M2.99983 19.5H29.3788L21.4393 27.4395C21.2961 27.5779 21.1818 27.7434 21.1032 27.9264C21.0246 28.1094 20.9832 28.3062 20.9815 28.5054C20.9797 28.7046 21.0177 28.9021 21.0931 29.0864C21.1685 29.2708 21.2799 29.4383 21.4207 29.5791C21.5616 29.7199 21.7291 29.8313 21.9134 29.9067C22.0977 29.9822 22.2953 30.0201 22.4944 30.0184C22.6936 30.0166 22.8904 29.9753 23.0734 29.8967C23.2564 29.818 23.422 29.7038 23.5603 29.5605L34.0603 19.0605C34.3415 18.7792 34.4995 18.3977 34.4995 18C34.4995 17.6023 34.3415 17.2208 34.0603 16.9395L23.5603 6.4395C23.2774 6.16626 22.8985 6.01507 22.5052 6.01849C22.1119 6.0219 21.7357 6.17966 21.4576 6.45777C21.1795 6.73588 21.0217 7.1121 21.0183 7.5054C21.0149 7.89869 21.1661 8.2776 21.4393 8.5605L29.3788 16.5H2.99983C2.60201 16.5 2.22047 16.658 1.93917 16.9393C1.65787 17.2206 1.49983 17.6022 1.49983 18C1.49983 18.3978 1.65787 18.7794 1.93917 19.0607C2.22047 19.342 2.60201 19.5 2.99983 19.5Z" fill="#F5F7FB"/>
</g>
<defs>
<clipPath id="clip0_51_6768">
<rect width="36" height="36" fill="white" transform="matrix(-1 0 0 1 36 0)"/>
</clipPath>
</defs>
</svg>
