<svg width="24" height="24" viewBox="0 0 24 24" fill="none" xmlns="http://www.w3.org/2000/svg">
<path fill-rule="evenodd" clip-rule="evenodd" d="M12.1267 13.8459L6.51203 8.23128C6.34376 8.06876 6.11839 7.97883 5.88445 7.98086C5.65052 7.98289 5.42674 8.07673 5.26132 8.24215C5.0959 8.40757 5.00207 8.63135 5.00003 8.86528C4.998 9.09922 5.08793 9.32459 5.25045 9.49286L11.4959 15.7383C11.5787 15.8212 11.677 15.887 11.7853 15.9319C11.8935 15.9768 12.0095 15.9999 12.1267 15.9999C12.2439 15.9999 12.3599 15.9768 12.4681 15.9319C12.5764 15.887 12.6747 15.8212 12.7575 15.7383L19.0029 9.49286C19.1655 9.32459 19.2554 9.09922 19.2534 8.86528C19.2513 8.63135 19.1575 8.40757 18.9921 8.24215C18.8266 8.07673 18.6029 7.98289 18.3689 7.98086C18.135 7.97883 17.9096 8.06876 17.7414 8.23128L12.1267 13.8459Z" fill="#747879"/>
</svg>
