<svg width="24" height="24" viewBox="0 0 24 24" fill="none" xmlns="http://www.w3.org/2000/svg">
<path fill-rule="evenodd" clip-rule="evenodd" d="M12.1267 10.1348L6.51203 15.7495C6.34376 15.912 6.11839 16.0019 5.88445 15.9999C5.65052 15.9979 5.42674 15.904 5.26132 15.7386C5.0959 15.5732 5.00207 15.3494 5.00003 15.1155C4.998 14.8815 5.08793 14.6562 5.25045 14.4879L11.4959 8.24243C11.5787 8.1595 11.677 8.09372 11.7853 8.04883C11.8935 8.00394 12.0095 7.98083 12.1267 7.98083C12.2439 7.98083 12.3599 8.00394 12.4681 8.04883C12.5764 8.09372 12.6747 8.1595 12.7575 8.24243L19.0029 14.4879C19.1655 14.6562 19.2554 14.8815 19.2534 15.1155C19.2513 15.3494 19.1575 15.5732 18.9921 15.7386C18.8266 15.904 18.6029 15.9979 18.3689 15.9999C18.135 16.0019 17.9096 15.912 17.7414 15.7495L12.1267 10.1348Z" fill="#747879"/>
</svg>
