<svg width="18" height="18" viewBox="0 0 18 18" fill="none" xmlns="http://www.w3.org/2000/svg">
<g clip-path="url(#clip0_46_2544)">
<path d="M16.0175 12.297C15.991 12.275 12.9965 10.132 12.184 10.2725C11.7935 10.3415 11.57 10.6075 11.1225 11.141C10.9988 11.2894 10.8723 11.4354 10.743 11.579C10.4602 11.4869 10.1843 11.3746 9.9175 11.243C8.54026 10.5725 7.4275 9.45974 6.757 8.0825C6.62543 7.81571 6.51315 7.53984 6.421 7.257C6.568 7.1225 6.774 6.949 6.862 6.875C7.3925 6.43 7.6585 6.2065 7.7275 5.8155C7.869 5.006 5.725 2.009 5.703 1.982C5.60536 1.84353 5.4782 1.72846 5.33069 1.64511C5.18317 1.56175 5.01899 1.51219 4.85 1.5C3.981 1.5 1.5 4.718 1.5 5.2605C1.5 5.292 1.5455 8.494 5.494 12.5105C9.506 16.4545 12.708 16.5 12.7395 16.5C13.282 16.5 16.5 14.019 16.5 13.15C16.4878 12.9809 16.4382 12.8167 16.3548 12.6692C16.2713 12.5217 16.1561 12.3945 16.0175 12.297ZM12.6845 15.497C12.2475 15.461 9.5605 15.1065 6.201 11.806C2.8835 8.4285 2.538 5.734 2.5035 5.3165C3.15889 4.28782 3.9504 3.35251 4.8565 2.536C4.8765 2.556 4.903 2.586 4.937 2.625C5.63191 3.57361 6.23054 4.58913 6.724 5.6565C6.56353 5.81794 6.39392 5.97002 6.216 6.112C5.9401 6.32223 5.68674 6.5605 5.46 6.823L5.3385 6.993L5.3745 7.1985C5.48031 7.65686 5.64238 8.10039 5.857 8.519C6.62594 10.098 7.90188 11.3738 9.481 12.1425C9.89952 12.3574 10.3431 12.5197 10.8015 12.6255L11.007 12.6615L11.177 12.54C11.4405 12.3123 11.6798 12.0579 11.891 11.781C12.0475 11.594 12.257 11.3445 12.336 11.274C13.4064 11.767 14.4245 12.3663 15.375 13.063C15.4165 13.098 15.4455 13.125 15.465 13.1425C14.6486 14.0489 13.7133 14.8406 12.6845 15.496V15.497Z" fill="#F5F7FB"/>
</g>
<defs>
<clipPath id="clip0_46_2544">
<rect width="16" height="16" fill="white" transform="translate(1 1)"/>
</clipPath>
</defs>
</svg>
