<svg width="40" height="40" viewBox="0 0 40 40" fill="none" xmlns="http://www.w3.org/2000/svg">
<g clip-path="url(#clip0_108_9833)">
<path d="M20 16.9144C23.003 16.9144 25.4375 14.48 25.4375 11.4769C25.4375 8.4739 23.003 6.03944 20 6.03944C16.997 6.03944 14.5625 8.4739 14.5625 11.4769C14.5625 14.48 16.997 16.9144 20 16.9144Z" fill="#3C5D87"/>
<path d="M31 16.9144C32.8985 16.9144 34.4375 15.3754 34.4375 13.4769C34.4375 11.5784 32.8985 10.0394 31 10.0394C29.1015 10.0394 27.5625 11.5784 27.5625 13.4769C27.5625 15.3754 29.1015 16.9144 31 16.9144Z" fill="#3C5D87"/>
<path d="M9 16.9144C10.8985 16.9144 12.4375 15.3754 12.4375 13.4769C12.4375 11.5784 10.8985 10.0394 9 10.0394C7.10152 10.0394 5.5625 11.5784 5.5625 13.4769C5.5625 15.3754 7.10152 16.9144 9 16.9144Z" fill="#3C5D87"/>
<path d="M12.3869 20.0013C11.0338 18.8927 9.80831 19.0395 8.24375 19.0395C5.90375 19.0395 4 20.932 4 23.2576V30.0832C4 31.0932 4.82438 31.9145 5.83812 31.9145C10.2148 31.9145 9.6875 31.9936 9.6875 31.7257C9.6875 26.8891 9.11462 23.3421 12.3869 20.0013Z" fill="#3C5D87"/>
<path d="M21.4883 19.0644C18.7556 18.8364 16.3802 19.067 14.3314 20.7581C10.9029 23.5044 11.5627 27.2021 11.5627 31.7256C11.5627 32.9224 12.5364 33.9144 13.7514 33.9144C26.9441 33.9144 27.4691 34.3399 28.2514 32.6075C28.508 32.0216 28.4377 32.2078 28.4377 26.6031C28.4377 22.1515 24.5831 19.0644 21.4883 19.0644ZM31.7564 19.0394C30.1833 19.0394 28.9646 18.8941 27.6133 20.0013C30.8611 23.3173 30.3127 26.6222 30.3127 31.7256C30.3127 31.9953 29.875 31.9144 34.0964 31.9144C35.1464 31.9144 36.0002 31.0638 36.0002 30.0181V23.2575C36.0002 20.9319 34.0964 19.0394 31.7564 19.0394Z" fill="#3C5D87"/>
</g>
<defs>
<clipPath id="clip0_108_9833">
<rect width="32" height="32" fill="white" transform="translate(4 4)"/>
</clipPath>
</defs>
</svg>
