<svg width="40" height="40" viewBox="0 0 40 40" fill="none" xmlns="http://www.w3.org/2000/svg">
<g clip-path="url(#clip0_108_9842)">
<path d="M35.0622 6.14762H31.7833C31.7997 5.74581 31.8083 5.34231 31.8083 4.9375C31.8083 4.41975 31.3886 4 30.8708 4H9.129C8.61125 4 8.1915 4.41975 8.1915 4.9375C8.1915 5.34231 8.20006 5.74588 8.2165 6.14762H4.9375C4.41975 6.14762 4 6.56737 4 7.08512V9.10019C4 14.6225 7.99012 19.2301 13.2387 20.1922C13.6882 20.6834 14.1606 21.1264 14.6531 21.5163C16.2709 22.7972 17.1987 24.6856 17.1987 26.6972V30.375H13.6361C13.1184 30.375 12.6986 30.7948 12.6986 31.3125V34.125H11.7611C11.2434 34.125 10.8236 34.5448 10.8236 35.0625C10.8236 35.5802 11.2434 36 11.7611 36H28.2388C28.7566 36 29.1763 35.5802 29.1763 35.0625C29.1763 34.5448 28.7566 34.125 28.2388 34.125H27.3013V31.3125C27.3013 30.7948 26.8816 30.375 26.3638 30.375H22.8011V26.6972C22.8011 24.6856 23.729 22.7973 25.3468 21.5163C25.8392 21.1263 26.3116 20.6834 26.7611 20.1922C32.0097 19.2301 35.9998 14.6225 35.9998 9.10019V7.08512C35.9997 6.56737 35.5801 6.14762 35.0622 6.14762ZM5.875 9.10019V8.02262H8.35331C8.6045 10.4024 9.14525 12.6838 9.95375 14.7398C10.3656 15.7873 10.8407 16.7613 11.3702 17.6512C8.13069 16.1652 5.875 12.8913 5.875 9.10019ZM34.1247 9.10019C34.1247 12.8914 31.8691 16.1652 28.6295 17.6512C29.1591 16.7614 29.6342 15.7873 30.0461 14.7399C30.8545 12.6838 31.3952 10.4025 31.6464 8.02269H34.1247L34.1247 9.10019Z" fill="#3C5D87"/>
</g>
<defs>
<clipPath id="clip0_108_9842">
<rect width="32" height="32" fill="white" transform="translate(4 4)"/>
</clipPath>
</defs>
</svg>
