<svg width="40" height="40" viewBox="0 0 40 40" fill="none" xmlns="http://www.w3.org/2000/svg">
<path fill-rule="evenodd" clip-rule="evenodd" d="M20.3868 7.58282C17.9146 7.49986 15.4786 8.19431 13.4217 9.56842C11.1091 11.1146 9.41539 13.4264 8.63832 16.0976C8.4279 16.0719 8.17592 16.0832 7.87672 16.1678C6.75964 16.4852 5.91984 17.4001 5.54206 18.2063C5.0517 19.2569 4.84506 20.6468 5.06304 22.0808C5.2795 23.5107 5.88357 24.6894 6.63912 25.4211C7.39695 26.1532 8.25261 26.3912 9.10261 26.2126C10.3682 25.9424 10.9957 25.7403 10.8185 24.5617L9.96092 18.8459C10.048 17.2902 10.4956 15.7762 11.2683 14.4232C12.0411 13.0702 13.1178 11.9155 14.4134 11.0501C16.1595 9.88192 18.228 9.29067 20.3277 9.35952C22.4274 9.42837 24.4526 10.1539 26.1185 11.4339C27.2686 12.3157 28.2144 13.4358 28.8909 14.7175C29.5674 15.9992 29.9587 17.412 30.0379 18.8591L29.438 22.8571C28.7871 24.6414 27.6437 26.2046 26.1403 27.3654C24.637 28.5262 22.8354 29.237 20.9444 29.4154H18.3884C18.232 29.415 18.077 29.4455 17.9325 29.5052C17.7879 29.5649 17.6565 29.6525 17.5459 29.7631C17.4353 29.8736 17.3475 30.0049 17.2878 30.1495C17.228 30.294 17.1974 30.4489 17.1976 30.6054V31.2332C17.1973 31.3897 17.2279 31.5446 17.2877 31.6892C17.3474 31.8338 17.4351 31.9651 17.5458 32.0757C17.6564 32.1863 17.7878 32.274 17.9324 32.3337C18.077 32.3934 18.232 32.4239 18.3884 32.4236H21.6112C21.7675 32.4238 21.9222 32.3932 22.0666 32.3335C22.211 32.2737 22.3422 32.1861 22.4526 32.0755C22.563 31.9649 22.6504 31.8336 22.7099 31.6891C22.7694 31.5447 22.7998 31.3899 22.7993 31.2336V30.9049C25.6949 30.1959 28.2175 28.423 29.8653 25.9387L30.8977 26.2126C31.7379 26.4305 32.6038 26.1529 33.3612 25.4211C34.1168 24.689 34.7205 23.5107 34.9373 22.0808C35.1564 20.6464 34.9434 19.2592 34.4591 18.2063C33.9729 17.1534 33.2487 16.4848 32.4126 16.2449C32.0624 16.144 31.6824 16.107 31.3564 16.0976C30.6546 13.6817 29.2001 11.5529 27.2046 10.021C25.243 8.51512 22.8585 7.66238 20.3868 7.58282Z" fill="#3C5D87"/>
<path fill-rule="evenodd" clip-rule="evenodd" d="M24.1593 17.8656C24.5687 17.8661 24.9612 18.0289 25.2506 18.3185C25.5401 18.608 25.7029 19.0005 25.7033 19.4099C25.7026 19.8193 25.5396 20.2117 25.2502 20.5012C24.9607 20.7906 24.5683 20.9536 24.1589 20.9543C23.7491 20.9544 23.356 20.7918 23.066 20.5022C22.776 20.2126 22.6128 19.8197 22.6123 19.4099C22.6124 19.2069 22.6525 19.0059 22.7303 18.8184C22.808 18.631 22.922 18.4606 23.0656 18.3172C23.2092 18.1737 23.3797 18.06 23.5673 17.9824C23.7549 17.9049 23.9559 17.865 24.1589 17.8652L24.1593 17.8656ZM20 17.8656C20.3054 17.8657 20.6039 17.9564 20.8577 18.1262C21.1116 18.2959 21.3094 18.5372 21.4262 18.8193C21.543 19.1015 21.5735 19.412 21.5138 19.7115C21.4542 20.011 21.3071 20.2861 21.0911 20.5021C20.8751 20.718 20.6 20.865 20.3004 20.9246C20.0009 20.9842 19.6904 20.9536 19.4083 20.8367C19.1261 20.7199 18.885 20.522 18.7152 20.2681C18.5455 20.0142 18.4549 19.7157 18.4548 19.4103C18.4546 19.2073 18.4945 19.0063 18.5721 18.8188C18.6496 18.6312 18.7634 18.4608 18.907 18.3173C19.0505 18.1738 19.2209 18.06 19.4084 17.9824C19.596 17.9048 19.797 17.8654 20 17.8656ZM15.8418 17.8656C16.0474 17.861 16.252 17.8976 16.4433 17.9732C16.6347 18.0487 16.809 18.1617 16.9561 18.3056C17.1031 18.4495 17.22 18.6212 17.2998 18.8109C17.3796 19.0005 17.4207 19.2042 17.4207 19.4099C17.4207 19.6156 17.3796 19.8193 17.2998 20.0089C17.22 20.1986 17.1031 20.3704 16.9561 20.5142C16.809 20.6581 16.6347 20.7711 16.4433 20.8467C16.252 20.9222 16.0474 20.9588 15.8418 20.9543C15.4363 20.9479 15.0496 20.7824 14.7651 20.4934C14.4806 20.2045 14.3212 19.8152 14.3212 19.4097C14.3212 19.0042 14.4806 18.615 14.7651 18.326C15.0496 18.037 15.4363 17.8719 15.8418 17.8656ZM20 11.2303C15.4704 11.2303 11.8203 14.7602 11.8203 19.4095C11.8203 21.6426 12.6646 23.6161 14.0401 25.0641L13.552 27.2522C13.3911 27.9722 13.8905 28.4566 14.538 28.0962L16.6744 26.9043C17.724 27.3587 18.8561 27.592 20 27.5896C24.531 27.5896 28.1788 24.0619 28.1788 19.4107C28.1788 14.761 24.531 11.231 20 11.231V11.2303Z" fill="#3C5D87"/>
</svg>
