<svg width="30" height="30" viewBox="0 0 30 30" fill="none" xmlns="http://www.w3.org/2000/svg">
<rect width="30" height="30" rx="15" fill="#3C5D87"/>
<path d="M22.8591 10.1788L18.0066 15L22.8591 19.8212C22.9468 19.6379 23 19.4352 23 19.2188V10.7812C23 10.5648 22.9468 10.3621 22.8591 10.1788ZM21.5938 9.375H8.40625C8.18978 9.375 7.98713 9.42822 7.80378 9.51594L14.0058 15.6867C14.5541 16.235 15.4459 16.235 15.9943 15.6867L22.1962 9.51594C22.0129 9.42822 21.8102 9.375 21.5938 9.375ZM7.14094 10.1788C7.05322 10.3621 7 10.5648 7 10.7812V19.2188C7 19.4352 7.05322 19.6379 7.14094 19.8212L11.9934 15L7.14094 10.1788Z" fill="#F5F7FB"/>
<path d="M17.3437 15.6628L16.657 16.3495C15.7433 17.2632 14.2565 17.2632 13.3428 16.3495L12.6562 15.6628L7.80371 20.4841C7.98705 20.5718 8.18971 20.625 8.40618 20.625H21.5937C21.8101 20.625 22.0128 20.5718 22.1961 20.4841L17.3437 15.6628Z" fill="#F5F7FB"/>
</svg>
