<svg width="18" height="18" viewBox="0 0 18 18" fill="none" xmlns="http://www.w3.org/2000/svg">
<path d="M15.5938 3.375H2.40625C1.62928 3.375 1 4.00819 1 4.78125V13.2188C1 13.9964 1.63391 14.625 2.40625 14.625H15.5938C16.3642 14.625 17 13.9991 17 13.2188V4.78125C17 4.00956 16.3732 3.375 15.5938 3.375ZM15.3968 4.3125L9.99438 9.68647C9.72875 9.95209 9.37562 10.0983 9 10.0983C8.62437 10.0983 8.27125 9.95206 8.00475 9.68559L2.60319 4.3125H15.3968ZM1.9375 13.0279V4.97266L5.98869 9.0025L1.9375 13.0279ZM2.60378 13.6875L6.65338 9.66366L7.34272 10.3494C7.78541 10.7921 8.37397 11.0358 9 11.0358C9.62603 11.0358 10.2146 10.7921 10.6564 10.3503L11.3466 9.66366L15.3962 13.6875H2.60378ZM16.0625 13.0279L12.0113 9.0025L16.0625 4.97266V13.0279Z" fill="#F5F7FB"/>
</svg>
