<svg width="40" height="40" viewBox="0 0 40 40" fill="none" xmlns="http://www.w3.org/2000/svg">
<path d="M23.1742 11.4733C18.4726 11.4733 14.6475 15.2984 14.6475 20C14.6475 24.7016 18.4726 28.5267 23.1742 28.5267C27.8759 28.5267 31.7009 24.7016 31.7009 20C31.7009 15.2984 27.8759 11.4733 23.1742 11.4733ZM27.195 20.9961H22.1781V14.0041H24.1703V19.0039H27.195V20.9961Z" fill="#3C5D87"/>
<path d="M23.2123 6.17435C20.179 6.16618 17.3728 7.13558 15.0896 8.78425H7.55042C6.36182 8.78425 5.39833 9.74781 5.39833 10.9363C5.39833 12.125 6.36188 13.0884 7.55042 13.0884H11.1978C10.4929 14.3071 9.97949 15.6268 9.67555 17.0014H5.15209C3.96355 17.0014 3 17.9649 3 19.1535C3 20.3421 3.96355 21.3056 5.15209 21.3056H9.41033C9.5357 22.6499 9.85854 23.9684 10.3684 25.2185H8.83127C7.64266 25.2185 6.67917 26.1821 6.67917 27.3706C6.67917 28.5592 7.64273 29.5227 8.83127 29.5227H13.1513C15.6702 32.1731 19.2292 33.8256 23.1743 33.8256C30.81 33.8257 37 27.6358 37 20.0001C37 12.3612 30.8512 6.19494 23.2123 6.17435ZM23.1743 30.5189C17.3742 30.5189 12.6554 25.8001 12.6554 20C12.6554 14.1999 17.3742 9.48112 23.1743 9.48112C28.9744 9.48112 33.6932 14.1999 33.6932 20C33.6932 25.8001 28.9744 30.5189 23.1743 30.5189Z" fill="#3C5D87"/>
</svg>
