<svg width="40" height="40" viewBox="0 0 40 40" fill="none" xmlns="http://www.w3.org/2000/svg">
<path d="M33.8125 8.3125H6.1875C4.43438 8.3125 3 9.74688 3 11.5V28.5C3 30.2531 4.43438 31.6875 6.1875 31.6875H33.8125C35.5656 31.6875 37 30.2531 37 28.5V11.5C37 9.74688 35.5656 8.3125 33.8125 8.3125ZM12.5625 28.5H8.3125C7.14375 28.5 6.1875 27.5438 6.1875 26.375C6.1875 25.2062 7.14375 24.25 8.3125 24.25H12.5625C13.7312 24.25 14.6875 25.2062 14.6875 26.375C14.6875 27.5438 13.7312 28.5 12.5625 28.5ZM34.3438 18.9375C34.3438 19.5219 33.8656 20 33.2812 20H6.1875C5.60313 20 5.125 19.5219 5.125 18.9375V14.6875C5.125 14.1031 5.60313 13.625 6.1875 13.625H33.2812C33.8656 13.625 34.3438 14.1031 34.3438 14.6875V18.9375Z" fill="#3C5D87"/>
</svg>
