<svg width="40" height="40" viewBox="0 0 40 40" fill="none" xmlns="http://www.w3.org/2000/svg">
<path d="M25.3125 4.0625H12.5625C11.1535 4.0625 9.80228 4.62221 8.806 5.6185C7.80971 6.61478 7.25 7.96604 7.25 9.375V27.4375C7.25 28.8465 7.80971 30.1977 8.806 31.194C9.80228 32.1903 11.1535 32.75 12.5625 32.75H24.25V29.4446C22.8881 28.0586 22.1249 26.1931 22.125 24.25C22.125 20.1488 25.4623 16.8125 29.5625 16.8125C29.9237 16.8125 30.2765 16.8476 30.625 16.8975V9.375C30.625 8.67735 30.4876 7.98654 30.2206 7.34199C29.9536 6.69745 29.5623 6.11181 29.069 5.6185C28.5757 5.12518 27.99 4.73387 27.3455 4.46689C26.701 4.19991 26.0101 4.0625 25.3125 4.0625ZM18.0662 27.4375H12.5625C12.2807 27.4375 12.0105 27.3256 11.8112 27.1263C11.6119 26.927 11.5 26.6568 11.5 26.375C11.5 26.0932 11.6119 25.823 11.8112 25.6237C12.0105 25.4244 12.2807 25.3125 12.5625 25.3125H18.0662C18.348 25.3125 18.6183 25.4244 18.8176 25.6237C19.0168 25.823 19.1287 26.0932 19.1287 26.375C19.1287 26.6568 19.0168 26.927 18.8176 27.1263C18.6183 27.3256 18.348 27.4375 18.0662 27.4375ZM18.3212 22.125H12.5625C12.2807 22.125 12.0105 22.0131 11.8112 21.8138C11.6119 21.6145 11.5 21.3443 11.5 21.0625C11.5 20.7807 11.6119 20.5105 11.8112 20.3112C12.0105 20.1119 12.2807 20 12.5625 20H18.3212C18.603 20 18.8733 20.1119 19.0726 20.3112C19.2718 20.5105 19.3837 20.7807 19.3837 21.0625C19.3837 21.3443 19.2718 21.6145 19.0726 21.8138C18.8733 22.0131 18.603 22.125 18.3212 22.125ZM21.5406 16.8125H12.5625C12.2807 16.8125 12.0105 16.7006 11.8112 16.5013C11.6119 16.302 11.5 16.0318 11.5 15.75C11.5 15.4682 11.6119 15.198 11.8112 14.9987C12.0105 14.7994 12.2807 14.6875 12.5625 14.6875H21.5406C21.8224 14.6875 22.0927 14.7994 22.2919 14.9987C22.4912 15.198 22.6031 15.4682 22.6031 15.75C22.6031 16.0318 22.4912 16.302 22.2919 16.5013C22.0927 16.7006 21.8224 16.8125 21.5406 16.8125ZM25.3125 11.5H12.5625C12.2807 11.5 12.0105 11.3881 11.8112 11.1888C11.6119 10.9895 11.5 10.7193 11.5 10.4375C11.5 10.1557 11.6119 9.88546 11.8112 9.6862C12.0105 9.48694 12.2807 9.375 12.5625 9.375H25.3125C25.5943 9.375 25.8645 9.48694 26.0638 9.6862C26.2631 9.88546 26.375 10.1557 26.375 10.4375C26.375 10.7193 26.2631 10.9895 26.0638 11.1888C25.8645 11.3881 25.5943 11.5 25.3125 11.5ZM29.5625 31.6875C28.4203 31.6875 27.3419 31.4219 26.375 30.9618V34.8729C26.375 35.0652 26.4272 35.254 26.526 35.419C26.6249 35.584 26.7666 35.7191 26.9362 35.8099C27.1059 35.9006 27.2969 35.9436 27.489 35.9343C27.6812 35.9249 27.8672 35.8636 28.0272 35.7569L29.5625 34.7326L31.0978 35.7569C31.2578 35.8636 31.4438 35.9249 31.636 35.9343C31.8281 35.9436 32.0191 35.9006 32.1888 35.8099C32.3584 35.7191 32.5001 35.584 32.599 35.419C32.6978 35.254 32.75 35.0652 32.75 34.8729V30.9618C31.7549 31.4384 30.6658 31.6863 29.5625 31.6875Z" fill="#3C5D87"/>
<path d="M29.5625 29.5625C32.4965 29.5625 34.875 27.184 34.875 24.25C34.875 21.316 32.4965 18.9375 29.5625 18.9375C26.6285 18.9375 24.25 21.316 24.25 24.25C24.25 27.184 26.6285 29.5625 29.5625 29.5625Z" fill="#3C5D87"/>
</svg>
