<svg width="30" height="30" viewBox="0 0 30 30" fill="none" xmlns="http://www.w3.org/2000/svg">
<rect width="30" height="30" rx="15" fill="#3C5D87"/>
<path d="M14.5187 6.99997C11.3236 6.99997 8.72412 9.59941 8.72412 12.7945C8.72412 16.7598 13.9097 22.581 14.1305 22.8269C14.3379 23.0579 14.7 23.0575 14.907 22.8269C15.1277 22.581 20.3133 16.7598 20.3133 12.7945C20.3133 9.59941 17.7139 6.99997 14.5187 6.99997ZM14.5187 21.679C12.7735 19.606 9.62994 15.9436 9.62994 13.2222C9.62994 15.4444 11.8989 21.679 14.5187 21.679C17.1385 21.679 15.4077 11.0469 15.4077 13.6667C15.4077 16.3882 16.2644 19.6053 14.5187 21.679Z" fill="#F5F7FB"/>
<circle cx="14.5192" cy="13.2222" r="2.66668" fill="#3C5D87"/>
</svg>
