<svg width="18" height="18" viewBox="0 0 18 18" fill="none" xmlns="http://www.w3.org/2000/svg">
<path d="M8.99981 1.5C6.00436 1.5 3.56738 3.93697 3.56738 6.9324C3.56738 10.6498 8.42888 16.1072 8.63586 16.3377C8.83027 16.5543 9.16971 16.5539 9.36377 16.3377C9.57075 16.1072 14.4322 10.6498 14.4322 6.9324C14.4322 3.93697 11.9952 1.5 8.99981 1.5ZM8.99981 15.2616C7.36367 13.3181 4.54566 9.48375 4.54566 6.93246C4.54566 4.47639 6.54377 2.47828 8.99981 2.47828C11.4559 2.47828 13.454 4.47639 13.454 6.93243C13.4539 9.48384 10.6364 13.3175 8.99981 15.2616Z" fill="#F5F7FB"/>
<path d="M8.99977 4.19923C7.49268 4.19923 6.2666 5.42534 6.2666 6.93243C6.2666 8.43952 7.49271 9.66562 8.99977 9.66562C10.5068 9.66562 11.7329 8.43952 11.7329 6.93243C11.7329 5.42534 10.5068 4.19923 8.99977 4.19923ZM8.99977 8.68734C8.03209 8.68734 7.24488 7.9001 7.24488 6.93243C7.24488 5.96475 8.03212 5.17752 8.99977 5.17752C9.96741 5.17752 10.7546 5.96475 10.7546 6.93243C10.7546 7.9001 9.96741 8.68734 8.99977 8.68734Z" fill="#F5F7FB"/>
</svg>
