<svg width="30" height="30" viewBox="0 0 30 30" fill="none" xmlns="http://www.w3.org/2000/svg">
<rect width="30" height="30" rx="15" fill="#3C5D87"/>
<path d="M13.9695 16.0305C15.0705 17.0525 16.5565 18.212 17.8355 16.992C18.0019 16.8256 18.1995 16.6935 18.4169 16.6035C18.6344 16.5134 18.8674 16.467 19.1028 16.467C19.3381 16.467 19.5712 16.5134 19.7886 16.6035C20.006 16.6935 20.2036 16.8256 20.37 16.992C20.9285 17.5945 21.992 18.342 21.92 19.285C21.9319 19.5363 21.8913 19.7872 21.8009 20.022C21.7106 20.2567 21.5723 20.4701 21.395 20.6485C18.204 23.532 14.946 21.0235 11.872 18.128C8.97601 15.054 6.46901 11.795 9.35201 8.60449C9.53044 8.42736 9.74374 8.28927 9.97838 8.19897C10.213 8.10868 10.4639 8.06816 10.715 8.07999C11.66 8.01049 12.399 9.06499 13.008 9.63049C13.1745 9.79691 13.3066 9.9945 13.3967 10.212C13.4869 10.4295 13.5332 10.6626 13.5332 10.898C13.5332 11.1334 13.4869 11.3665 13.3967 11.584C13.3066 11.8015 13.1745 11.9991 13.008 12.1655C11.788 13.4455 12.948 14.9285 13.9695 16.0305Z" fill="#F5F7FB"/>
</svg>
