<svg width="40" height="40" viewBox="0 0 40 40" fill="none" xmlns="http://www.w3.org/2000/svg">
<path fill-rule="evenodd" clip-rule="evenodd" d="M22.0135 4.93514L24.038 6.45053C24.5917 6.86497 25.1745 7.07707 25.865 7.11552L28.3899 7.25597C29.9017 7.34004 31.1296 8.37034 31.475 9.84469L32.0518 12.3068C32.2095 12.9802 32.5196 13.5173 33.0239 13.9906L34.8678 15.7212C35.9719 16.7574 36.2502 18.3359 35.5671 19.6873L34.4263 21.9441C34.1143 22.5614 34.0066 23.1721 34.0887 23.8588L34.3889 26.3697C34.5686 27.8733 33.7671 29.2613 32.3752 29.8575L30.0506 30.853C29.4148 31.1253 28.9398 31.5239 28.5613 32.1027L27.1771 34.2191C26.3484 35.4863 24.8422 36.0345 23.3928 35.5965L20.9721 34.865C20.3101 34.6649 19.69 34.6649 19.0279 34.865L16.6073 35.5965C15.1579 36.0345 13.6517 35.4863 12.8229 34.2191L11.4388 32.1027C11.0602 31.5239 10.5851 31.1253 9.94944 30.853L7.62469 29.8573C6.23281 29.2612 5.43136 27.8731 5.61105 26.3696L5.91121 23.8587C5.99329 23.172 5.88558 22.5612 5.5736 21.944L4.43281 19.6872C3.74975 18.3359 4.02806 16.7573 5.13213 15.721L6.97603 13.9904C7.48032 13.5172 7.79037 12.9801 7.94809 12.3067L8.52489 9.84455C8.8702 8.37027 10.0981 7.33998 11.61 7.25584L14.1348 7.11539C14.8254 7.07701 15.4082 6.86484 15.9619 6.4504L17.9863 4.93501C19.1984 4.02777 20.8013 4.02777 22.0135 4.93514ZM18.7085 20.8673L16.5115 18.6703C15.9421 18.1008 15.0184 18.1008 14.4491 18.6703C13.8796 19.2397 13.8796 20.1633 14.4491 20.7327L17.6805 23.9641C18.2499 24.5334 19.1735 24.5335 19.7429 23.9641C21.6906 22.0163 23.6162 20.0467 25.555 18.09C26.1203 17.5195 26.1185 16.5988 25.5487 16.0322C24.9788 15.4654 24.0555 15.467 23.4895 16.0385L18.7085 20.8673ZM19.9999 9.13952C17.0009 9.13952 14.2858 10.3552 12.3204 12.3205C10.355 14.2859 9.13942 17.001 9.13942 20C9.13942 22.999 10.355 25.7141 12.3204 27.6795C14.2858 29.6448 17.0009 30.8605 19.9999 30.8605C22.9989 30.8605 25.714 29.6448 27.6794 27.6795C29.6447 25.7141 30.8604 22.999 30.8604 20C30.8604 17.001 29.6447 14.2859 27.6794 12.3205C25.714 10.3552 22.9989 9.13952 19.9999 9.13952ZM26.9281 13.0718C25.1551 11.2987 22.7055 10.202 19.9999 10.202C17.2942 10.202 14.8447 11.2987 13.0717 13.0718C11.2986 14.8448 10.2019 17.2943 10.2019 20C10.2019 22.7057 11.2986 25.1552 13.0717 26.9282C14.8447 28.7013 17.2942 29.798 19.9999 29.798C22.7055 29.798 25.1551 28.7013 26.9281 26.9283C28.7012 25.1552 29.7978 22.7057 29.7978 20.0001C29.7979 17.2943 28.7012 14.8448 26.9281 13.0718Z" fill="#3C5D87"/>
</svg>
