<svg width="40" height="40" viewBox="0 0 40 40" fill="none" xmlns="http://www.w3.org/2000/svg">
<path fill-rule="evenodd" clip-rule="evenodd" d="M20.228 24.3283V26.9395C20.2275 26.9749 20.2366 27.0098 20.2543 27.0405C20.272 27.0712 20.2977 27.0965 20.3286 27.1138L22.3723 28.2937C22.5068 28.3715 22.6742 28.2748 22.6742 28.1194V24.6326L31.1091 19.7627L33.7681 21.2978C33.9815 21.421 34.1036 21.6324 34.1036 21.8788V30.844C34.1036 31.0904 33.9815 31.3019 33.7681 31.425L26.004 35.9076C25.7907 36.0308 25.5465 36.0308 25.3331 35.9076L17.569 31.425C17.3556 31.3019 17.2335 31.0904 17.2335 30.844V22.731L19.6292 24.1142C19.8141 24.2214 20.017 24.2939 20.228 24.3283ZM20.8368 4.09203C20.6235 3.96885 20.3793 3.96885 20.166 4.09203L12.4018 8.57468C12.1885 8.69786 12.0664 8.90939 12.0664 9.15568V18.1209C12.0664 18.3673 12.1885 18.5787 12.4018 18.7019L20.1659 23.1846C20.3793 23.3077 20.6235 23.3077 20.8368 23.1846L28.601 18.7019C28.8143 18.5787 28.9364 18.3673 28.9364 18.1209V9.15568C28.9364 8.90933 28.8143 8.69786 28.601 8.57468L25.942 7.03954L17.507 11.9095V15.3963C17.507 15.5517 17.3397 15.6483 17.2051 15.5706L15.1615 14.3907C15.1306 14.3734 15.1049 14.3481 15.0872 14.3174C15.0694 14.2867 15.0604 14.2518 15.0608 14.2164V10.4972L23.4958 5.62724L20.8368 4.09203ZM10.9929 15.4612L8.89089 16.6749V20.394C8.8904 20.4295 8.89949 20.4644 8.91721 20.495C8.93492 20.5257 8.9606 20.5511 8.99152 20.5683L11.0351 21.7482C11.1697 21.826 11.337 21.7294 11.337 21.5739V19.1648C11.4796 19.3545 11.6592 19.5133 11.865 19.6315L16.16 22.1113V28.5001L14.6668 29.3622C14.4535 29.4854 14.2093 29.4854 13.9959 29.3622L6.23193 24.8796C6.01859 24.7565 5.89648 24.545 5.89648 24.2987V15.3333C5.89648 15.087 6.01859 14.8755 6.23193 14.7524L10.9929 12.0036V15.4612Z" fill="#3C5D87"/>
</svg>
