<svg width="28" height="28" viewBox="0 0 28 28" fill="none" xmlns="http://www.w3.org/2000/svg">
<path d="M0 14C0 6.26801 6.26801 0 14 0C21.732 0 28 6.26801 28 14C28 21.732 21.732 28 14 28C6.26801 28 0 21.732 0 14Z" fill="#F5F7FB"/>
<path d="M14.0006 11.5112C15.3751 11.5112 16.4896 12.6254 16.4896 14.0001C16.4896 15.3746 15.3751 16.489 14.0006 16.489C12.626 16.489 11.5117 15.3746 11.5117 14.0001C11.5117 12.6254 12.626 11.5112 14.0006 11.5112Z" fill="#F5F7FB"/>
<path d="M16.333 14C16.333 14.4615 16.1962 14.9126 15.9398 15.2963C15.6834 15.6801 15.319 15.9791 14.8926 16.1557C14.4662 16.3323 13.9971 16.3785 13.5445 16.2885C13.0918 16.1985 12.6761 15.9762 12.3498 15.6499C12.0234 15.3236 11.8012 14.9078 11.7112 14.4552C11.6211 14.0026 11.6674 13.5334 11.844 13.1071C12.0206 12.6807 12.3196 12.3163 12.7033 12.0599C13.0871 11.8035 13.5382 11.6667 13.9997 11.6667C14.6183 11.6674 15.2114 11.9134 15.6488 12.3509C16.0862 12.7883 16.3323 13.3814 16.333 14ZM21.2913 10.7917V17.2083C21.2901 18.2909 20.8595 19.3288 20.094 20.0943C19.3285 20.8598 18.2906 21.2905 17.208 21.2917H10.7913C9.70875 21.2905 8.67085 20.8598 7.90534 20.0943C7.13983 19.3288 6.70923 18.2909 6.70801 17.2083V10.7917C6.70923 9.70909 7.13983 8.67119 7.90534 7.90568C8.67085 7.14017 9.70875 6.70957 10.7913 6.70834H17.208C18.2906 6.70957 19.3285 7.14017 20.094 7.90568C20.8595 8.67119 21.2901 9.70909 21.2913 10.7917ZM17.4997 14C17.4997 13.3078 17.2944 12.6311 16.9098 12.0555C16.5252 11.4799 15.9786 11.0313 15.3391 10.7664C14.6995 10.5015 13.9958 10.4322 13.3169 10.5673C12.6379 10.7023 12.0143 11.0357 11.5248 11.5251C11.0353 12.0146 10.702 12.6383 10.5669 13.3172C10.4319 13.9961 10.5012 14.6999 10.7661 15.3394C11.031 15.9789 11.4796 16.5256 12.0552 16.9102C12.6308 17.2947 13.3074 17.5 13.9997 17.5C14.9276 17.499 15.8172 17.1299 16.4734 16.4737C17.1295 15.8176 17.4986 14.9279 17.4997 14ZM18.6663 10.2083C18.6663 10.0353 18.615 9.86611 18.5189 9.72222C18.4227 9.57833 18.2861 9.46618 18.1262 9.39995C17.9663 9.33372 17.7904 9.31639 17.6206 9.35016C17.4509 9.38392 17.295 9.46725 17.1726 9.58962C17.0503 9.712 16.9669 9.86791 16.9332 10.0376C16.8994 10.2074 16.9167 10.3833 16.9829 10.5432C17.0492 10.7031 17.1613 10.8397 17.3052 10.9359C17.4491 11.032 17.6183 11.0833 17.7913 11.0833C18.0234 11.0833 18.246 10.9912 18.4101 10.8271C18.5742 10.663 18.6663 10.4404 18.6663 10.2083Z" fill="#3C5D87"/>
</svg>
