<svg width="28" height="28" viewBox="0 0 28 28" fill="none" xmlns="http://www.w3.org/2000/svg">
<path d="M0 14C0 6.26801 6.26801 0 14 0C21.732 0 28 6.26801 28 14C28 21.732 21.732 28 14 28C6.26801 28 0 21.732 0 14Z" fill="#F5F7FB"/>
<path d="M13.8043 11.3794L13.8337 11.8638L13.3441 11.8045C11.5618 11.5771 10.0048 10.806 8.68275 9.51085L8.03643 8.86823L7.86995 9.34278C7.51741 10.4006 7.74265 11.5178 8.4771 12.2691C8.86881 12.6844 8.78067 12.7437 8.10498 12.4965C7.86995 12.4174 7.6643 12.3581 7.64472 12.3878C7.57617 12.457 7.8112 13.3566 7.99726 13.7125C8.25187 14.2069 8.77088 14.6913 9.33886 14.978L9.8187 15.2054L9.25072 15.2153C8.70233 15.2153 8.68275 15.2252 8.7415 15.4328C8.93736 16.0754 9.71098 16.7575 10.5727 17.0541L11.1799 17.2618L10.6511 17.5781C9.86766 18.0329 8.94715 18.2899 8.02663 18.3097C7.58596 18.3196 7.22363 18.3591 7.22363 18.3888C7.22363 18.4877 8.41834 19.0413 9.11363 19.2588C11.1995 19.9014 13.677 19.6246 15.5376 18.5272C16.8597 17.7462 18.1817 16.194 18.7986 14.6913C19.1316 13.8905 19.4645 12.4273 19.4645 11.7254C19.4645 11.2706 19.4939 11.2113 20.0423 10.6676C20.3654 10.3512 20.669 10.0052 20.7278 9.9063C20.8257 9.71846 20.8159 9.71846 20.3165 9.88653C19.4841 10.1831 19.3666 10.1436 19.7779 9.69869C20.0815 9.38232 20.4438 8.80892 20.4438 8.64085C20.4438 8.61119 20.2969 8.66062 20.1304 8.7496C19.9542 8.84846 19.5624 8.99676 19.2687 9.08573L18.7399 9.2538L18.26 8.92755C17.9956 8.7496 17.6235 8.55187 17.4276 8.49255C16.9282 8.35414 16.1644 8.37392 15.7139 8.5321C14.4898 8.97698 13.7162 10.1238 13.8043 11.3794Z" fill="#3C5D87"/>
</svg>
