<svg width="28" height="28" viewBox="0 0 28 28" fill="none" xmlns="http://www.w3.org/2000/svg">
<path d="M0 14C0 6.26801 6.26801 0 14 0C21.732 0 28 6.26801 28 14C28 21.732 21.732 28 14 28C6.26801 28 0 21.732 0 14Z" fill="#F5F7FB"/>
<path d="M9.87916 14.8766H11.5633V21.8099C11.5633 21.9468 11.6742 22.0577 11.8111 22.0577H14.6667C14.8035 22.0577 14.9145 21.9468 14.9145 21.8099V14.9092H16.8505C16.9764 14.9092 17.0823 14.8148 17.0967 14.6897L17.3908 12.1372C17.3988 12.067 17.3766 11.9966 17.3296 11.944C17.2826 11.8912 17.2153 11.861 17.1446 11.861H14.9146V10.261C14.9146 9.77866 15.1743 9.53407 15.6865 9.53407C15.7595 9.53407 17.1446 9.53407 17.1446 9.53407C17.2815 9.53407 17.3924 9.4231 17.3924 9.28626V6.94329C17.3924 6.8064 17.2815 6.69548 17.1446 6.69548H15.1352C15.121 6.69479 15.0895 6.69365 15.0431 6.69365C14.6945 6.69365 13.4825 6.76209 12.5252 7.6428C11.4645 8.61877 11.6119 9.78733 11.6472 9.98994V11.861H9.87916C9.74227 11.861 9.63135 11.9719 9.63135 12.1088V14.6287C9.63135 14.7656 9.74227 14.8766 9.87916 14.8766Z" fill="#3C5D87"/>
</svg>
