<svg width="38" height="38" viewBox="0 0 38 38" fill="none" xmlns="http://www.w3.org/2000/svg">
<path d="M29.8864 3.75391H14.4308C12.7261 3.75391 11.3397 5.14027 11.3397 6.84503V16.1184H8.24859C6.54384 16.1184 5.15747 17.5048 5.15747 19.2095V33.1196C5.15747 33.5295 5.32031 33.9226 5.61015 34.2124C5.9 34.5023 6.29312 34.6651 6.70303 34.6651H31.432C31.8419 34.6651 32.235 34.5023 32.5249 34.2124C32.8147 33.9226 32.9776 33.5295 32.9776 33.1196V6.84503C32.9776 5.14027 31.5912 3.75391 29.8864 3.75391ZM8.24859 19.2095H17.522V31.574H8.24859V19.2095ZM29.8864 31.574H20.6131V19.2095C20.6131 17.5048 19.2267 16.1184 17.522 16.1184H14.4308V6.84503H29.8864V31.574Z" fill="white"/>
<path d="M17.5218 9.9375H20.613V13.0286H17.5218V9.9375ZM23.7041 9.9375H26.7952V13.0286H23.7041V9.9375ZM23.7041 16.1677H26.7952V19.2109H23.7041V16.1677ZM23.7041 22.302H26.7952V25.3931H23.7041V22.302ZM11.3396 22.3035H14.4307V25.3947H11.3396V22.3035Z" fill="white"/>
</svg>
