<svg width="271" height="97" viewBox="0 0 271 97" fill="none" xmlns="http://www.w3.org/2000/svg">
<path d="M25.7562 0.00524902C24.2343 0.00524902 23.0006 -1.22845 23.0006 -2.75031C23.0006 -4.27216 24.2343 -5.50586 25.7562 -5.50586C27.278 -5.50586 28.5117 -4.27216 28.5117 -2.75031C28.5117 -1.22845 27.278 0.00524902 25.7562 0.00524902Z" fill="#FFC100"/>
<path d="M25.7562 24.2552C24.2343 24.2552 23.0006 23.0215 23.0006 21.4997C23.0006 19.9778 24.2343 18.7441 25.7562 18.7441C27.278 18.7441 28.5117 19.9778 28.5117 21.4997C28.5117 23.0215 27.278 24.2552 25.7562 24.2552Z" fill="#FFC100"/>
<path d="M25.7562 48.5013C24.2343 48.5013 23.0006 47.2676 23.0006 45.7458C23.0006 44.2239 24.2343 42.9902 25.7562 42.9902C27.278 42.9902 28.5117 44.2239 28.5117 45.7458C28.5117 47.2676 27.278 48.5013 25.7562 48.5013Z" fill="#FFC100"/>
<path d="M50.0042 0.00524902C48.4824 0.00524902 47.2487 -1.22845 47.2487 -2.75031C47.2487 -4.27216 48.4824 -5.50586 50.0042 -5.50586C51.5261 -5.50586 52.7598 -4.27216 52.7598 -2.75031C52.7598 -1.22845 51.5261 0.00524902 50.0042 0.00524902Z" fill="#FFC100"/>
<path d="M50.0042 24.2552C48.4824 24.2552 47.2487 23.0215 47.2487 21.4997C47.2487 19.9778 48.4824 18.7441 50.0042 18.7441C51.5261 18.7441 52.7598 19.9778 52.7598 21.4997C52.7598 23.0215 51.5261 24.2552 50.0042 24.2552Z" fill="#FFC100"/>
<path d="M50.0042 48.5013C48.4824 48.5013 47.2487 47.2676 47.2487 45.7458C47.2487 44.2239 48.4824 42.9902 50.0042 42.9902C51.5261 42.9902 52.7598 44.2239 52.7598 45.7458C52.7598 47.2676 51.5261 48.5013 50.0042 48.5013Z" fill="#FFC100"/>
<path d="M50.0042 72.7513C48.4824 72.7513 47.2487 71.5176 47.2487 69.9958C47.2487 68.4739 48.4824 67.2402 50.0042 67.2402C51.5261 67.2402 52.7598 68.4739 52.7598 69.9958C52.7598 71.5176 51.5261 72.7513 50.0042 72.7513Z" fill="#FFC100"/>
<path d="M74.2542 0.00524902C72.7324 0.00524902 71.4987 -1.22845 71.4987 -2.75031C71.4987 -4.27216 72.7324 -5.50586 74.2542 -5.50586C75.7761 -5.50586 77.0098 -4.27216 77.0098 -2.75031C77.0098 -1.22845 75.7761 0.00524902 74.2542 0.00524902Z" fill="#FFC100"/>
<path d="M74.2542 24.2552C72.7324 24.2552 71.4987 23.0215 71.4987 21.4997C71.4987 19.9778 72.7324 18.7441 74.2542 18.7441C75.7761 18.7441 77.0098 19.9778 77.0098 21.4997C77.0098 23.0215 75.7761 24.2552 74.2542 24.2552Z" fill="#FFC100"/>
<path d="M74.2542 48.5013C72.7324 48.5013 71.4987 47.2676 71.4987 45.7458C71.4987 44.2239 72.7324 42.9902 74.2542 42.9902C75.7761 42.9902 77.0098 44.2239 77.0098 45.7458C77.0098 47.2676 75.7761 48.5013 74.2542 48.5013Z" fill="#FFC100"/>
<path d="M74.2542 72.7513C72.7324 72.7513 71.4987 71.5176 71.4987 69.9958C71.4987 68.4739 72.7324 67.2402 74.2542 67.2402C75.7761 67.2402 77.0098 68.4739 77.0098 69.9958C77.0098 71.5176 75.7761 72.7513 74.2542 72.7513Z" fill="#FFC100"/>
<path d="M74.2542 96.9994C72.7324 96.9994 71.4987 95.7657 71.4987 94.2438C71.4987 92.722 72.7324 91.4883 74.2542 91.4883C75.7761 91.4883 77.0098 92.722 77.0098 94.2438C77.0098 95.7657 75.7761 96.9994 74.2542 96.9994Z" fill="#FFC100"/>
<path d="M98.5003 0.00524902C96.9785 0.00524902 95.7448 -1.22845 95.7448 -2.75031C95.7448 -4.27216 96.9785 -5.50586 98.5003 -5.50586C100.022 -5.50586 101.256 -4.27216 101.256 -2.75031C101.256 -1.22845 100.022 0.00524902 98.5003 0.00524902Z" fill="#FFC100"/>
<path d="M98.5003 24.2552C96.9785 24.2552 95.7448 23.0215 95.7448 21.4997C95.7448 19.9778 96.9785 18.7441 98.5003 18.7441C100.022 18.7441 101.256 19.9778 101.256 21.4997C101.256 23.0215 100.022 24.2552 98.5003 24.2552Z" fill="#FFC100"/>
<path d="M98.5003 48.5013C96.9785 48.5013 95.7448 47.2676 95.7448 45.7458C95.7448 44.2239 96.9785 42.9902 98.5003 42.9902C100.022 42.9902 101.256 44.2239 101.256 45.7458C101.256 47.2676 100.022 48.5013 98.5003 48.5013Z" fill="#FFC100"/>
<path d="M98.5003 72.7513C96.9785 72.7513 95.7448 71.5176 95.7448 69.9958C95.7448 68.4739 96.9785 67.2402 98.5003 67.2402C100.022 67.2402 101.256 68.4739 101.256 69.9958C101.256 71.5176 100.022 72.7513 98.5003 72.7513Z" fill="#FFC100"/>
<path d="M98.5003 96.9994C96.9785 96.9994 95.7448 95.7657 95.7448 94.2438C95.7448 92.722 96.9785 91.4883 98.5003 91.4883C100.022 91.4883 101.256 92.722 101.256 94.2438C101.256 95.7657 100.022 96.9994 98.5003 96.9994Z" fill="#FFC100"/>
<path d="M122.75 0.00524902C121.228 0.00524902 119.995 -1.22845 119.995 -2.75031C119.995 -4.27216 121.228 -5.50586 122.75 -5.50586C124.272 -5.50586 125.506 -4.27216 125.506 -2.75031C125.506 -1.22845 124.272 0.00524902 122.75 0.00524902Z" fill="#FFC100"/>
<path d="M122.75 24.2552C121.228 24.2552 119.995 23.0215 119.995 21.4997C119.995 19.9778 121.228 18.7441 122.75 18.7441C124.272 18.7441 125.506 19.9778 125.506 21.4997C125.506 23.0215 124.272 24.2552 122.75 24.2552Z" fill="#FFC100"/>
<path d="M122.75 48.5013C121.228 48.5013 119.995 47.2676 119.995 45.7458C119.995 44.2239 121.228 42.9902 122.75 42.9902C124.272 42.9902 125.506 44.2239 125.506 45.7458C125.506 47.2676 124.272 48.5013 122.75 48.5013Z" fill="#FFC100"/>
<path d="M122.75 72.7513C121.228 72.7513 119.995 71.5176 119.995 69.9958C119.995 68.4739 121.228 67.2402 122.75 67.2402C124.272 67.2402 125.506 68.4739 125.506 69.9958C125.506 71.5176 124.272 72.7513 122.75 72.7513Z" fill="#FFC100"/>
<path d="M122.75 96.9994C121.228 96.9994 119.995 95.7657 119.995 94.2438C119.995 92.722 121.228 91.4883 122.75 91.4883C124.272 91.4883 125.506 92.722 125.506 94.2438C125.506 95.7657 124.272 96.9994 122.75 96.9994Z" fill="#FFC100"/>
<path d="M147 0.00524902C145.478 0.00524902 144.245 -1.22845 144.245 -2.75031C144.245 -4.27216 145.478 -5.50586 147 -5.50586C148.522 -5.50586 149.756 -4.27216 149.756 -2.75031C149.756 -1.22845 148.522 0.00524902 147 0.00524902Z" fill="#FFC100"/>
<path d="M147 24.2552C145.478 24.2552 144.245 23.0215 144.245 21.4997C144.245 19.9778 145.478 18.7441 147 18.7441C148.522 18.7441 149.756 19.9778 149.756 21.4997C149.756 23.0215 148.522 24.2552 147 24.2552Z" fill="#FFC100"/>
<path d="M147 48.5013C145.478 48.5013 144.245 47.2676 144.245 45.7458C144.245 44.2239 145.478 42.9902 147 42.9902C148.522 42.9902 149.756 44.2239 149.756 45.7458C149.756 47.2676 148.522 48.5013 147 48.5013Z" fill="#FFC100"/>
<path d="M147 72.7513C145.478 72.7513 144.245 71.5176 144.245 69.9958C144.245 68.4739 145.478 67.2402 147 67.2402C148.522 67.2402 149.756 68.4739 149.756 69.9958C149.756 71.5176 148.522 72.7513 147 72.7513Z" fill="#FFC100"/>
<path d="M147 96.9994C145.478 96.9994 144.245 95.7657 144.245 94.2438C144.245 92.722 145.478 91.4883 147 91.4883C148.522 91.4883 149.756 92.722 149.756 94.2438C149.756 95.7657 148.522 96.9994 147 96.9994Z" fill="#FFC100"/>
<path d="M171.248 0.00524902C169.727 0.00524902 168.493 -1.22845 168.493 -2.75031C168.493 -4.27216 169.727 -5.50586 171.248 -5.50586C172.77 -5.50586 174.004 -4.27216 174.004 -2.75031C174.004 -1.22845 172.77 0.00524902 171.248 0.00524902Z" fill="#FFC100"/>
<path d="M171.248 24.2552C169.727 24.2552 168.493 23.0215 168.493 21.4997C168.493 19.9778 169.727 18.7441 171.248 18.7441C172.77 18.7441 174.004 19.9778 174.004 21.4997C174.004 23.0215 172.77 24.2552 171.248 24.2552Z" fill="#FFC100"/>
<path d="M171.248 48.5013C169.727 48.5013 168.493 47.2676 168.493 45.7458C168.493 44.2239 169.727 42.9902 171.248 42.9902C172.77 42.9902 174.004 44.2239 174.004 45.7458C174.004 47.2676 172.77 48.5013 171.248 48.5013Z" fill="#FFC100"/>
<path d="M171.248 72.7513C169.727 72.7513 168.493 71.5176 168.493 69.9958C168.493 68.4739 169.727 67.2402 171.248 67.2402C172.77 67.2402 174.004 68.4739 174.004 69.9958C174.004 71.5176 172.77 72.7513 171.248 72.7513Z" fill="#FFC100"/>
<path d="M171.248 96.9994C169.727 96.9994 168.493 95.7657 168.493 94.2438C168.493 92.722 169.727 91.4883 171.248 91.4883C172.77 91.4883 174.004 92.722 174.004 94.2438C174.004 95.7657 172.77 96.9994 171.248 96.9994Z" fill="#FFC100"/>
<path d="M195.498 0.00524902C193.977 0.00524902 192.743 -1.22845 192.743 -2.75031C192.743 -4.27216 193.977 -5.50586 195.498 -5.50586C197.02 -5.50586 198.254 -4.27216 198.254 -2.75031C198.254 -1.22845 197.02 0.00524902 195.498 0.00524902Z" fill="#FFC100"/>
<path d="M195.498 24.2552C193.977 24.2552 192.743 23.0215 192.743 21.4997C192.743 19.9778 193.977 18.7441 195.498 18.7441C197.02 18.7441 198.254 19.9778 198.254 21.4997C198.254 23.0215 197.02 24.2552 195.498 24.2552Z" fill="#FFC100"/>
<path d="M195.498 48.5013C193.977 48.5013 192.743 47.2676 192.743 45.7458C192.743 44.2239 193.977 42.9902 195.498 42.9902C197.02 42.9902 198.254 44.2239 198.254 45.7458C198.254 47.2676 197.02 48.5013 195.498 48.5013Z" fill="#FFC100"/>
<path d="M195.498 72.7513C193.977 72.7513 192.743 71.5176 192.743 69.9958C192.743 68.4739 193.977 67.2402 195.498 67.2402C197.02 67.2402 198.254 68.4739 198.254 69.9958C198.254 71.5176 197.02 72.7513 195.498 72.7513Z" fill="#FFC100"/>
<path d="M195.498 96.9994C193.977 96.9994 192.743 95.7657 192.743 94.2438C192.743 92.722 193.977 91.4883 195.498 91.4883C197.02 91.4883 198.254 92.722 198.254 94.2438C198.254 95.7657 197.02 96.9994 195.498 96.9994Z" fill="#FFC100"/>
<path d="M219.746 0.00524902C218.225 0.00524902 216.991 -1.22845 216.991 -2.75031C216.991 -4.27216 218.225 -5.50586 219.746 -5.50586C221.268 -5.50586 222.502 -4.27216 222.502 -2.75031C222.502 -1.22845 221.268 0.00524902 219.746 0.00524902Z" fill="#FFC100"/>
<path d="M219.746 24.2552C218.225 24.2552 216.991 23.0215 216.991 21.4997C216.991 19.9778 218.225 18.7441 219.746 18.7441C221.268 18.7441 222.502 19.9778 222.502 21.4997C222.502 23.0215 221.268 24.2552 219.746 24.2552Z" fill="#FFC100"/>
<path d="M219.746 48.5013C218.225 48.5013 216.991 47.2676 216.991 45.7458C216.991 44.2239 218.225 42.9902 219.746 42.9902C221.268 42.9902 222.502 44.2239 222.502 45.7458C222.502 47.2676 221.268 48.5013 219.746 48.5013Z" fill="#FFC100"/>
<path d="M219.746 72.7513C218.225 72.7513 216.991 71.5176 216.991 69.9958C216.991 68.4739 218.225 67.2402 219.746 67.2402C221.268 67.2402 222.502 68.4739 222.502 69.9958C222.502 71.5176 221.268 72.7513 219.746 72.7513Z" fill="#FFC100"/>
<path d="M243.996 0.00524902C242.475 0.00524902 241.241 -1.22845 241.241 -2.75031C241.241 -4.27216 242.475 -5.50586 243.996 -5.50586C245.518 -5.50586 246.752 -4.27216 246.752 -2.75031C246.752 -1.22845 245.518 0.00524902 243.996 0.00524902Z" fill="#FFC100"/>
<path d="M243.996 24.2552C242.475 24.2552 241.241 23.0215 241.241 21.4997C241.241 19.9778 242.475 18.7441 243.996 18.7441C245.518 18.7441 246.752 19.9778 246.752 21.4997C246.752 23.0215 245.518 24.2552 243.996 24.2552Z" fill="#FFC100"/>
<path d="M243.996 48.5013C242.475 48.5013 241.241 47.2676 241.241 45.7458C241.241 44.2239 242.475 42.9902 243.996 42.9902C245.518 42.9902 246.752 44.2239 246.752 45.7458C246.752 47.2676 245.518 48.5013 243.996 48.5013Z" fill="#FFC100"/>
<path d="M268.244 0.00524902C266.723 0.00524902 265.489 -1.22845 265.489 -2.75031C265.489 -4.27216 266.723 -5.50586 268.244 -5.50586C269.766 -5.50586 271 -4.27216 271 -2.75031C271 -1.22845 269.766 0.00524902 268.244 0.00524902Z" fill="#FFC100"/>
<path d="M266.756 24.5111C265.234 24.5111 264.001 23.2774 264.001 21.7556C264.001 20.2337 265.234 19 266.756 19C268.278 19 269.512 20.2337 269.512 21.7556C269.512 23.2774 268.278 24.5111 266.756 24.5111Z" fill="#FFC100"/>
<path d="M2.75616 24.5111C1.23431 24.5111 0.000610352 23.2774 0.000610352 21.7556C0.000610352 20.2337 1.23431 19 2.75616 19C4.27802 19 5.51172 20.2337 5.51172 21.7556C5.51172 23.2774 4.27802 24.5111 2.75616 24.5111Z" fill="#FFC100"/>
</svg>
