<svg width="292" height="97" viewBox="0 0 292 97" fill="none" xmlns="http://www.w3.org/2000/svg">
<path d="M2.75616 78.2572C1.23431 78.2572 0.000610352 77.0235 0.000610352 75.5016C0.000610352 73.9798 1.23431 72.7461 2.75616 72.7461C4.27802 72.7461 5.51172 73.9798 5.51172 75.5016C5.51172 77.0235 4.27802 78.2572 2.75616 78.2572Z" fill="#FF8577"/>
<path d="M288.756 78.5111C287.234 78.5111 286.001 77.2774 286.001 75.7556C286.001 74.2337 287.234 73 288.756 73C290.278 73 291.512 74.2337 291.512 75.7556C291.512 77.2774 290.278 78.5111 288.756 78.5111Z" fill="#FF8577"/>
<path d="M2.75616 102.507C1.23431 102.507 0.000610352 101.273 0.000610352 99.7516C0.000610352 98.2298 1.23431 96.9961 2.75616 96.9961C4.27802 96.9961 5.51172 98.2298 5.51172 99.7516C5.51172 101.273 4.27802 102.507 2.75616 102.507Z" fill="#FF8577"/>
<path d="M27.0042 54.0092C25.4824 54.0092 24.2487 52.7755 24.2487 51.2536C24.2487 49.7318 25.4824 48.498 27.0042 48.498C28.5261 48.498 29.7598 49.7318 29.7598 51.2536C29.7598 52.7755 28.5261 54.0092 27.0042 54.0092Z" fill="#FF8577"/>
<path d="M27.0042 78.2572C25.4824 78.2572 24.2487 77.0235 24.2487 75.5016C24.2487 73.9798 25.4824 72.7461 27.0042 72.7461C28.5261 72.7461 29.7598 73.9798 29.7598 75.5016C29.7598 77.0235 28.5261 78.2572 27.0042 78.2572Z" fill="#FF8577"/>
<path d="M267.756 78.2572C266.234 78.2572 265.001 77.0235 265.001 75.5016C265.001 73.9798 266.234 72.7461 267.756 72.7461C269.278 72.7461 270.512 73.9798 270.512 75.5016C270.512 77.0235 269.278 78.2572 267.756 78.2572Z" fill="#FF8577"/>
<path d="M27.0042 102.507C25.4824 102.507 24.2487 101.273 24.2487 99.7516C24.2487 98.2298 25.4824 96.9961 27.0042 96.9961C28.5261 96.9961 29.7598 98.2298 29.7598 99.7516C29.7598 101.273 28.5261 102.507 27.0042 102.507Z" fill="#FF8577"/>
<path d="M51.2542 29.7592C49.7324 29.7592 48.4987 28.5255 48.4987 27.0036C48.4987 25.4818 49.7324 24.248 51.2542 24.248C52.7761 24.248 54.0098 25.4818 54.0098 27.0036C54.0098 28.5255 52.7761 29.7592 51.2542 29.7592Z" fill="#FF8577"/>
<path d="M51.2542 54.0092C49.7324 54.0092 48.4987 52.7755 48.4987 51.2536C48.4987 49.7318 49.7324 48.498 51.2542 48.498C52.7761 48.498 54.0098 49.7318 54.0098 51.2536C54.0098 52.7755 52.7761 54.0092 51.2542 54.0092Z" fill="#FF8577"/>
<path d="M51.2542 78.2572C49.7324 78.2572 48.4987 77.0235 48.4987 75.5016C48.4987 73.9798 49.7324 72.7461 51.2542 72.7461C52.7761 72.7461 54.0098 73.9798 54.0098 75.5016C54.0098 77.0235 52.7761 78.2572 51.2542 78.2572Z" fill="#FF8577"/>
<path d="M51.2542 102.507C49.7324 102.507 48.4987 101.273 48.4987 99.7516C48.4987 98.2298 49.7324 96.9961 51.2542 96.9961C52.7761 96.9961 54.0098 98.2298 54.0098 99.7516C54.0098 101.273 52.7761 102.507 51.2542 102.507Z" fill="#FF8577"/>
<path d="M75.5023 5.51111C73.9804 5.51111 72.7467 4.2774 72.7467 2.75555C72.7467 1.2337 73.9804 0 75.5023 0C77.0241 0 78.2578 1.2337 78.2578 2.75555C78.2578 4.2774 77.0241 5.51111 75.5023 5.51111Z" fill="#FF8577"/>
<path d="M75.5023 29.7592C73.9804 29.7592 72.7467 28.5255 72.7467 27.0036C72.7467 25.4818 73.9804 24.248 75.5023 24.248C77.0241 24.248 78.2578 25.4818 78.2578 27.0036C78.2578 28.5255 77.0241 29.7592 75.5023 29.7592Z" fill="#FF8577"/>
<path d="M75.5023 54.0092C73.9804 54.0092 72.7467 52.7755 72.7467 51.2536C72.7467 49.7318 73.9804 48.498 75.5023 48.498C77.0241 48.498 78.2578 49.7318 78.2578 51.2536C78.2578 52.7755 77.0241 54.0092 75.5023 54.0092Z" fill="#FF8577"/>
<path d="M75.5023 78.2572C73.9804 78.2572 72.7467 77.0235 72.7467 75.5016C72.7467 73.9798 73.9804 72.7461 75.5023 72.7461C77.0241 72.7461 78.2578 73.9798 78.2578 75.5016C78.2578 77.0235 77.0241 78.2572 75.5023 78.2572Z" fill="#FF8577"/>
<path d="M75.5023 102.507C73.9804 102.507 72.7467 101.273 72.7467 99.7516C72.7467 98.2298 73.9804 96.9961 75.5023 96.9961C77.0241 96.9961 78.2578 98.2298 78.2578 99.7516C78.2578 101.273 77.0241 102.507 75.5023 102.507Z" fill="#FF8577"/>
<path d="M99.7503 5.51111C98.2285 5.51111 96.9948 4.2774 96.9948 2.75555C96.9948 1.2337 98.2285 0 99.7503 0C101.272 0 102.506 1.2337 102.506 2.75555C102.506 4.2774 101.272 5.51111 99.7503 5.51111Z" fill="#FF8577"/>
<path d="M99.7503 29.7592C98.2285 29.7592 96.9948 28.5255 96.9948 27.0036C96.9948 25.4818 98.2285 24.248 99.7503 24.248C101.272 24.248 102.506 25.4818 102.506 27.0036C102.506 28.5255 101.272 29.7592 99.7503 29.7592Z" fill="#FF8577"/>
<path d="M99.7503 54.0092C98.2285 54.0092 96.9948 52.7755 96.9948 51.2536C96.9948 49.7318 98.2285 48.498 99.7503 48.498C101.272 48.498 102.506 49.7318 102.506 51.2536C102.506 52.7755 101.272 54.0092 99.7503 54.0092Z" fill="#FF8577"/>
<path d="M99.7503 78.2572C98.2285 78.2572 96.9948 77.0235 96.9948 75.5016C96.9948 73.9798 98.2285 72.7461 99.7503 72.7461C101.272 72.7461 102.506 73.9798 102.506 75.5016C102.506 77.0235 101.272 78.2572 99.7503 78.2572Z" fill="#FF8577"/>
<path d="M99.7503 102.507C98.2285 102.507 96.9948 101.273 96.9948 99.7516C96.9948 98.2298 98.2285 96.9961 99.7503 96.9961C101.272 96.9961 102.506 98.2298 102.506 99.7516C102.506 101.273 101.272 102.507 99.7503 102.507Z" fill="#FF8577"/>
<path d="M124 5.51111C122.478 5.51111 121.245 4.2774 121.245 2.75555C121.245 1.2337 122.478 0 124 0C125.522 0 126.756 1.2337 126.756 2.75555C126.756 4.2774 125.522 5.51111 124 5.51111Z" fill="#FF8577"/>
<path d="M124 29.7592C122.478 29.7592 121.245 28.5255 121.245 27.0036C121.245 25.4818 122.478 24.248 124 24.248C125.522 24.248 126.756 25.4818 126.756 27.0036C126.756 28.5255 125.522 29.7592 124 29.7592Z" fill="#FF8577"/>
<path d="M124 54.0092C122.478 54.0092 121.245 52.7755 121.245 51.2536C121.245 49.7318 122.478 48.498 124 48.498C125.522 48.498 126.756 49.7318 126.756 51.2536C126.756 52.7755 125.522 54.0092 124 54.0092Z" fill="#FF8577"/>
<path d="M124 78.2572C122.478 78.2572 121.245 77.0235 121.245 75.5016C121.245 73.9798 122.478 72.7461 124 72.7461C125.522 72.7461 126.756 73.9798 126.756 75.5016C126.756 77.0235 125.522 78.2572 124 78.2572Z" fill="#FF8577"/>
<path d="M124 102.507C122.478 102.507 121.245 101.273 121.245 99.7516C121.245 98.2298 122.478 96.9961 124 96.9961C125.522 96.9961 126.756 98.2298 126.756 99.7516C126.756 101.273 125.522 102.507 124 102.507Z" fill="#FF8577"/>
<path d="M148.248 5.51111C146.727 5.51111 145.493 4.2774 145.493 2.75555C145.493 1.2337 146.727 0 148.248 0C149.77 0 151.004 1.2337 151.004 2.75555C151.004 4.2774 149.77 5.51111 148.248 5.51111Z" fill="#FF8577"/>
<path d="M148.248 29.7592C146.727 29.7592 145.493 28.5255 145.493 27.0036C145.493 25.4818 146.727 24.248 148.248 24.248C149.77 24.248 151.004 25.4818 151.004 27.0036C151.004 28.5255 149.77 29.7592 148.248 29.7592Z" fill="#FF8577"/>
<path d="M148.248 54.0092C146.727 54.0092 145.493 52.7755 145.493 51.2536C145.493 49.7318 146.727 48.498 148.248 48.498C149.77 48.498 151.004 49.7318 151.004 51.2536C151.004 52.7755 149.77 54.0092 148.248 54.0092Z" fill="#FF8577"/>
<path d="M148.248 78.2572C146.727 78.2572 145.493 77.0235 145.493 75.5016C145.493 73.9798 146.727 72.7461 148.248 72.7461C149.77 72.7461 151.004 73.9798 151.004 75.5016C151.004 77.0235 149.77 78.2572 148.248 78.2572Z" fill="#FF8577"/>
<path d="M148.248 102.507C146.727 102.507 145.493 101.273 145.493 99.7516C145.493 98.2298 146.727 96.9961 148.248 96.9961C149.77 96.9961 151.004 98.2298 151.004 99.7516C151.004 101.273 149.77 102.507 148.248 102.507Z" fill="#FF8577"/>
<path d="M172.498 5.51111C170.977 5.51111 169.743 4.2774 169.743 2.75555C169.743 1.2337 170.977 0 172.498 0C174.02 0 175.254 1.2337 175.254 2.75555C175.254 4.2774 174.02 5.51111 172.498 5.51111Z" fill="#FF8577"/>
<path d="M172.498 29.7592C170.977 29.7592 169.743 28.5255 169.743 27.0036C169.743 25.4818 170.977 24.248 172.498 24.248C174.02 24.248 175.254 25.4818 175.254 27.0036C175.254 28.5255 174.02 29.7592 172.498 29.7592Z" fill="#FF8577"/>
<path d="M172.498 54.0092C170.977 54.0092 169.743 52.7755 169.743 51.2536C169.743 49.7318 170.977 48.498 172.498 48.498C174.02 48.498 175.254 49.7318 175.254 51.2536C175.254 52.7755 174.02 54.0092 172.498 54.0092Z" fill="#FF8577"/>
<path d="M172.498 78.2572C170.977 78.2572 169.743 77.0235 169.743 75.5016C169.743 73.9798 170.977 72.7461 172.498 72.7461C174.02 72.7461 175.254 73.9798 175.254 75.5016C175.254 77.0235 174.02 78.2572 172.498 78.2572Z" fill="#FF8577"/>
<path d="M172.498 102.507C170.977 102.507 169.743 101.273 169.743 99.7516C169.743 98.2298 170.977 96.9961 172.498 96.9961C174.02 96.9961 175.254 98.2298 175.254 99.7516C175.254 101.273 174.02 102.507 172.498 102.507Z" fill="#FF8577"/>
<path d="M196.746 5.51111C195.225 5.51111 193.991 4.2774 193.991 2.75555C193.991 1.2337 195.225 0 196.746 0C198.268 0 199.502 1.2337 199.502 2.75555C199.502 4.2774 198.268 5.51111 196.746 5.51111Z" fill="#FF8577"/>
<path d="M196.746 29.7592C195.225 29.7592 193.991 28.5255 193.991 27.0036C193.991 25.4818 195.225 24.248 196.746 24.248C198.268 24.248 199.502 25.4818 199.502 27.0036C199.502 28.5255 198.268 29.7592 196.746 29.7592Z" fill="#FF8577"/>
<path d="M196.746 54.0092C195.225 54.0092 193.991 52.7755 193.991 51.2536C193.991 49.7318 195.225 48.498 196.746 48.498C198.268 48.498 199.502 49.7318 199.502 51.2536C199.502 52.7755 198.268 54.0092 196.746 54.0092Z" fill="#FF8577"/>
<path d="M196.746 78.2572C195.225 78.2572 193.991 77.0235 193.991 75.5016C193.991 73.9798 195.225 72.7461 196.746 72.7461C198.268 72.7461 199.502 73.9798 199.502 75.5016C199.502 77.0235 198.268 78.2572 196.746 78.2572Z" fill="#FF8577"/>
<path d="M196.746 102.507C195.225 102.507 193.991 101.273 193.991 99.7516C193.991 98.2298 195.225 96.9961 196.746 96.9961C198.268 96.9961 199.502 98.2298 199.502 99.7516C199.502 101.273 198.268 102.507 196.746 102.507Z" fill="#FF8577"/>
<path d="M220.996 5.51111C219.475 5.51111 218.241 4.2774 218.241 2.75555C218.241 1.2337 219.475 0 220.996 0C222.518 0 223.752 1.2337 223.752 2.75555C223.752 4.2774 222.518 5.51111 220.996 5.51111Z" fill="#FF8577"/>
<path d="M220.996 29.7592C219.475 29.7592 218.241 28.5255 218.241 27.0036C218.241 25.4818 219.475 24.248 220.996 24.248C222.518 24.248 223.752 25.4818 223.752 27.0036C223.752 28.5255 222.518 29.7592 220.996 29.7592Z" fill="#FF8577"/>
<path d="M220.996 54.0092C219.475 54.0092 218.241 52.7755 218.241 51.2536C218.241 49.7318 219.475 48.498 220.996 48.498C222.518 48.498 223.752 49.7318 223.752 51.2536C223.752 52.7755 222.518 54.0092 220.996 54.0092Z" fill="#FF8577"/>
<path d="M220.996 78.2572C219.475 78.2572 218.241 77.0235 218.241 75.5016C218.241 73.9798 219.475 72.7461 220.996 72.7461C222.518 72.7461 223.752 73.9798 223.752 75.5016C223.752 77.0235 222.518 78.2572 220.996 78.2572Z" fill="#FF8577"/>
<path d="M220.996 102.507C219.475 102.507 218.241 101.273 218.241 99.7516C218.241 98.2298 219.475 96.9961 220.996 96.9961C222.518 96.9961 223.752 98.2298 223.752 99.7516C223.752 101.273 222.518 102.507 220.996 102.507Z" fill="#FF8577"/>
<path d="M245.244 29.7592C243.723 29.7592 242.489 28.5255 242.489 27.0036C242.489 25.4818 243.723 24.248 245.244 24.248C246.766 24.248 248 25.4818 248 27.0036C248 28.5255 246.766 29.7592 245.244 29.7592Z" fill="#FF8577"/>
<path d="M245.244 54.0092C243.723 54.0092 242.489 52.7755 242.489 51.2536C242.489 49.7318 243.723 48.498 245.244 48.498C246.766 48.498 248 49.7318 248 51.2536C248 52.7755 246.766 54.0092 245.244 54.0092Z" fill="#FF8577"/>
<path d="M245.244 78.2572C243.723 78.2572 242.489 77.0235 242.489 75.5016C242.489 73.9798 243.723 72.7461 245.244 72.7461C246.766 72.7461 248 73.9798 248 75.5016C248 77.0235 246.766 78.2572 245.244 78.2572Z" fill="#FF8577"/>
<path d="M245.244 102.507C243.723 102.507 242.489 101.273 242.489 99.7516C242.489 98.2298 243.723 96.9961 245.244 96.9961C246.766 96.9961 248 98.2298 248 99.7516C248 101.273 246.766 102.507 245.244 102.507Z" fill="#FF8577"/>
<path d="M267.756 53.5111C266.234 53.5111 265.001 52.2774 265.001 50.7556C265.001 49.2337 266.234 48 267.756 48C269.278 48 270.512 49.2337 270.512 50.7556C270.512 52.2774 269.278 53.5111 267.756 53.5111Z" fill="#FF8577"/>
</svg>
